<?xml version="1.0" encoding="UTF-8"?>
<svg width="95px" height="145px" viewBox="0 0 95 145" version="1.1" xmlns="http://www.w3.org/2000/svg" xmlns:xlink="http://www.w3.org/1999/xlink">
    <!-- Generator: Sketch 63.1 (92452) - https://sketch.com -->
    <title>Group 4</title>
    <desc>Created with Sketch.</desc>
    <defs>
        <linearGradient x1="50%" y1="0.0633445946%" x2="50%" y2="100%" id="linearGradient-1">
            <stop stop-color="#1C2B39" offset="0.0633445946%"></stop>
            <stop stop-color="#00C0E5" offset="100%"></stop>
        </linearGradient>
        <path d="M47.0569442,143.799651 C47.0569442,143.799651 60.421532,115.755562 83.5893235,77.2127026 C106.757115,38.6698431 88.4309606,5.19526476e-15 47.056943,-2.40501896e-15 C5.68292548,-6.13878692e-15 -12.0119701,35.838685 8.67503898,77.2127026 C32.2883851,115.754624 47.0569442,143.799651 47.0569442,143.799651 Z" id="path-2"></path>
        <filter x="-5.3%" y="-3.5%" width="110.7%" height="107.0%" filterUnits="objectBoundingBox" id="filter-3">
            <feGaussianBlur stdDeviation="1.5" in="SourceAlpha" result="shadowBlurInner1"></feGaussianBlur>
            <feOffset dx="0" dy="7" in="shadowBlurInner1" result="shadowOffsetInner1"></feOffset>
            <feComposite in="shadowOffsetInner1" in2="SourceAlpha" operator="arithmetic" k2="-1" k3="1" result="shadowInnerInner1"></feComposite>
            <feColorMatrix values="0 0 0 0 0   0 0 0 0 0   0 0 0 0 0  0 0 0 0.1 0" type="matrix" in="shadowInnerInner1"></feColorMatrix>
        </filter>
    </defs>
    <g id="Page-1" stroke="none" stroke-width="1" fill="none" fill-rule="evenodd">
        <g id="iPhone-8" transform="translate(-169.000000, -38.000000)">
            <g id="Group-4" transform="translate(169.835611, 38.873012)">
                <g id="Oval-1">
                    <use fill="url(#linearGradient-1)" fill-rule="evenodd" xlink:href="#path-2"></use>
                    <use fill="black" fill-opacity="1" filter="url(#filter-3)" xlink:href="#path-2"></use>
                </g>
                <g id="tickets" transform="translate(10.164389, 12.126988)" fill-rule="nonzero">
                    <path d="M17.3724265,34.7481618 L1.69537815,60.8056197 C0.797111345,62.298687 1.2792542,64.2373424 2.77247899,65.1357668 L17.3724265,73.9194328 L17.3724265,34.7481618 Z" id="Path" fill="#FFDC00"></path>
                    <path d="M72.227521,15.5365021 L57.6275735,6.75283613 L57.6275735,45.9241071 L73.3044643,19.8666492 C74.2028887,18.3735819 73.7205882,16.4349265 72.227521,15.5365021 Z" id="Path" fill="#FFDC00"></path>
                    <path d="M57.6280462,4.33786765 L57.6280462,76.3344013 C57.6280462,78.0761029 56.2145483,79.4894433 54.4730042,79.4894433 L44.3609244,79.4894433 C43.7046744,76.3011555 40.8824055,73.9033613 37.5001576,73.9033613 C34.1179097,73.9033613 31.2940651,76.301313 30.6378151,79.4894433 L20.5273109,79.4894433 C18.7857668,79.4894433 17.3722689,78.0759454 17.3722689,76.3344013 L17.3722689,4.33786765 C17.3722689,2.59616597 18.7857668,1.18282563 20.5273109,1.18282563 L30.6378151,1.18282563 C31.2939076,4.37095588 34.1177521,6.76890756 37.5,6.76890756 C40.8822479,6.76890756 43.7045168,4.37095588 44.3607668,1.18282563 L54.4728466,1.18282563 C56.2145483,1.18282563 57.6280462,2.59632353 57.6280462,4.33786765 L57.6280462,4.33786765 Z" id="Path" fill="#FFF0C0"></path>
                    <path d="M57.6280462,73.4948004 L57.6280462,76.3344013 C57.6280462,78.0761029 56.2145483,79.4894433 54.4730042,79.4894433 L44.3609244,79.4894433 C43.7046744,76.3011555 40.8824055,73.9033613 37.5001576,73.9033613 C34.1179097,73.9033613 31.2940651,76.301313 30.6378151,79.4894433 L20.5273109,79.4894433 C18.7857668,79.4894433 17.3722689,78.0759454 17.3722689,76.3344013 L17.3722689,73.4948004 C17.3722689,75.2365021 18.7857668,76.6498424 20.5273109,76.6498424 L28.1027836,76.6498424 C29.5446429,72.8637605 33.2078256,70.1724265 37.5003151,70.1724265 C41.7928046,70.1724265 45.4544118,72.8637605 46.896271,76.6498424 L54.4733193,76.6498424 C56.2145483,76.6498424 57.6280462,75.2363445 57.6280462,73.4948004 L57.6280462,73.4948004 Z" id="Path" fill="#FFE394"></path>
                    <polygon id="Path" fill="#FFBF00" points="14.5328256 72.2109769 17.3724265 73.9194328 17.3724265 34.7481618 14.5328256 39.4679622"></polygon>
                    <polygon id="Path" fill="#FFBF00" points="60.4671744 8.46129202 57.6275735 6.75283613 57.6275735 45.9241071 60.4671744 41.2043067"></polygon>
                    <path d="M39.1441702,20.8113971 L41.482563,24.7539391 C41.7510504,25.2064601 42.1939601,25.5283613 42.7073004,25.643855 L47.1795693,26.6495798 C48.5959034,26.9680147 49.1543067,28.6868697 48.1956933,29.7770483 L45.16875,33.2193277 C44.8213235,33.6144958 44.6521008,34.1352416 44.7009454,34.6591387 L45.1265231,39.2232668 C45.2612395,40.66875 43.7992122,41.7310399 42.4660714,41.1560924 L38.2569328,39.3409664 C37.7738445,39.1326681 37.2261555,39.1326681 36.7430672,39.3409664 L32.5339286,41.1560924 C31.2009454,41.7308824 29.7387605,40.6685924 29.8734769,39.2232668 L30.2990546,34.6591387 C30.3478992,34.1352416 30.1786765,33.6143382 29.83125,33.2193277 L26.8043067,29.7770483 C25.8456933,28.6868697 26.4040966,26.9680147 27.8204307,26.6495798 L32.292542,25.643855 C32.8058824,25.5283613 33.2489496,25.2064601 33.5172794,24.7539391 L35.8556723,20.8113971 C36.5963761,19.5628676 38.4036239,19.5628676 39.1441702,20.8113971 L39.1441702,20.8113971 Z" id="Path" fill="#FFDC00"></path>
                    <path d="M44.9544643,37.3775735 C44.5370798,38.2583508 43.4653361,38.7474265 42.4660714,38.3164916 L38.2569328,36.5013655 C37.7738445,36.2930672 37.2261555,36.2930672 36.7430672,36.5013655 L32.5339286,38.3164916 C31.5346639,38.7474265 30.4629202,38.2583508 30.0455357,37.3775735 L29.8734769,39.2231092 C29.7387605,40.6685924 31.2007878,41.7308824 32.5339286,41.1559349 L36.7430672,39.3408088 C37.2261555,39.1325105 37.7738445,39.1325105 38.2569328,39.3408088 L42.4660714,41.1559349 C43.7990546,41.7307248 45.2612395,40.6684349 45.1265231,39.2231092 L44.9544643,37.3775735 Z" id="Path" fill="#FFBF00"></path>
                    <g id="Group" fill="#000000">
                        <path d="M72.8374475,14.5227416 L58.8107143,6.08382353 L58.8107143,4.33834034 C58.8107143,1.94606092 56.8646534,1.25949671e-15 54.4723739,1.25949671e-15 L44.3607668,1.25949671e-15 C43.7992122,1.25949671e-15 43.3151786,0.394537815 43.2018908,0.944590336 C42.6482143,3.63387605 40.2499475,5.58576681 37.4993697,5.58576681 C34.748792,5.58576681 32.3505252,3.63387605 31.7970063,0.944590336 C31.6838761,0.394537815 31.1996849,1.25949671e-15 30.6381303,1.25949671e-15 L20.5274685,1.25949671e-15 C18.1353466,1.25949671e-15 16.1891282,1.94606092 16.1891282,4.33834034 L16.1891282,16.2204832 C16.1891282,16.8738971 16.718855,17.4036239 17.3722689,17.4036239 C18.0256828,17.4036239 18.5554097,16.8738971 18.5554097,16.2204832 L18.5554097,4.33834034 C18.5554097,3.2509979 19.4399685,2.36643908 20.5273109,2.36643908 L29.7337185,2.36643908 C30.8371324,5.65414916 33.9609769,7.95220588 37.4992122,7.95220588 C41.037605,7.95220588 44.1614496,5.65414916 45.2647059,2.36643908 L54.4722164,2.36643908 C55.5595588,2.36643908 56.4441176,3.2509979 56.4441176,4.33834034 L56.4441176,54.2360294 L56.0497374,54.2360294 C55.396166,54.2360294 54.8665966,54.7657563 54.8665966,55.4191702 C54.8665966,56.072584 55.396166,56.6023109 56.0497374,56.6023109 L56.4441176,56.6023109 L56.4441176,76.3339286 C56.4441176,77.421271 55.5595588,78.3058298 54.4722164,78.3058298 L45.2647059,78.3058298 C44.161292,75.0181197 41.0374475,72.720063 37.4992122,72.720063 C33.9609769,72.720063 30.8369748,75.0181197 29.7337185,78.3058298 L20.5273109,78.3058298 C19.4399685,78.3058298 18.5554097,77.421271 18.5554097,76.3339286 L18.5554097,56.6023109 L18.9773634,56.6023109 C19.6307773,56.6023109 20.1605042,56.072584 20.1605042,55.4191702 C20.1605042,54.7657563 19.6307773,54.2360294 18.9773634,54.2360294 L18.5554097,54.2360294 L18.5554097,20.9532038 C18.5554097,20.2997899 18.0256828,19.770063 17.3722689,19.770063 C16.718855,19.770063 16.1891282,20.2997899 16.1891282,20.9532038 L16.1891282,34.4196429 L6.36601891,50.7472689 C6.02914916,51.3072479 6.21003151,52.0340861 6.7700105,52.3711134 C6.96097689,52.4859769 7.17116597,52.5406513 7.37883403,52.5406513 C7.78030462,52.5406513 8.17184874,52.336292 8.39385504,51.9672794 L16.1892857,39.0099265 L16.1892857,71.8268382 L3.38256303,64.1218487 C2.45089286,63.5612395 2.14884454,62.3472164 2.70945378,61.4155462 L5.95005252,56.0290966 C6.28692227,55.4691176 6.10603992,54.7421218 5.54606092,54.4052521 C4.98608193,54.0683824 4.25908613,54.2492647 3.92221639,54.8092437 L0.681617647,60.1956933 C-0.551470588,62.2454307 0.112815126,64.9162815 2.16255252,66.1495273 L16.1891282,74.5882878 L16.1891282,76.3339286 C16.1891282,78.7260504 18.1353466,80.6722689 20.5274685,80.6722689 L30.6381303,80.6722689 C31.1996849,80.6722689 31.6838761,80.2777311 31.7970063,79.7276786 C32.3505252,77.0383929 34.748792,75.0865021 37.4993697,75.0865021 C40.2499475,75.0865021 42.6482143,77.0383929 43.2018908,79.7276786 C43.3151786,80.2777311 43.7992122,80.6722689 44.3607668,80.6722689 L54.4723739,80.6722689 C56.8646534,80.6722689 58.8107143,78.7260504 58.8107143,76.3339286 L58.8107143,46.2526261 L65.3653361,35.3580882 C65.7020483,34.7982668 65.5213235,34.071271 64.9613445,33.7342437 C64.4015231,33.3973739 63.6743697,33.5780987 63.3376576,34.1382353 L58.8108718,41.6625 L58.8108718,8.84543067 L71.6177521,16.5504202 C72.5494223,17.1110294 72.8514706,18.3250525 72.2908613,19.2567227 L65.7781513,30.0816176 C65.4414391,30.6415966 65.6221639,31.3684349 66.1821429,31.7054622 C66.3729517,31.8203256 66.5832983,31.875 66.7909664,31.875 C67.1922794,31.875 67.5839811,31.6706408 67.8058298,31.3016282 L74.3185399,20.4765756 C75.5516282,18.4268382 74.8871849,15.7559874 72.8374475,14.5227416 Z" id="Path"></path>
                        <path d="M50.5285714,56.6023109 L52.1060924,56.6023109 C52.7596639,56.6023109 53.2892332,56.072584 53.2892332,55.4191702 C53.2892332,54.7657563 52.7595063,54.2360294 52.1060924,54.2360294 L50.5285714,54.2360294 C49.875,54.2360294 49.3454307,54.7657563 49.3454307,55.4191702 C49.3454307,56.072584 49.875,56.6023109 50.5285714,56.6023109 Z" id="Path"></path>
                        <path d="M45.0070903,54.2360294 C44.3535189,54.2360294 43.8239496,54.7657563 43.8239496,55.4191702 C43.8239496,56.072584 44.3535189,56.6023109 45.0070903,56.6023109 L46.5846113,56.6023109 C47.2381828,56.6023109 47.7677521,56.072584 47.7677521,55.4191702 C47.7677521,54.7657563 47.2380252,54.2360294 46.5846113,54.2360294 L45.0070903,54.2360294 Z" id="Path"></path>
                        <path d="M28.4428046,54.2360294 C27.7893908,54.2360294 27.2596639,54.7657563 27.2596639,55.4191702 C27.2596639,56.072584 27.7893908,56.6023109 28.4428046,56.6023109 L30.0203256,56.6023109 C30.6737395,56.6023109 31.2034664,56.072584 31.2034664,55.4191702 C31.2034664,54.7657563 30.6737395,54.2360294 30.0203256,54.2360294 L28.4428046,54.2360294 Z" id="Path"></path>
                        <path d="M22.9213235,54.2360294 C22.2679097,54.2360294 21.7381828,54.7657563 21.7381828,55.4191702 C21.7381828,56.072584 22.2679097,56.6023109 22.9213235,56.6023109 L24.4988445,56.6023109 C25.1522584,56.6023109 25.6819853,56.072584 25.6819853,55.4191702 C25.6819853,54.7657563 25.1522584,54.2360294 24.4988445,54.2360294 L22.9213235,54.2360294 Z" id="Path"></path>
                        <path d="M33.9641282,54.2360294 C33.3107143,54.2360294 32.7809874,54.7657563 32.7809874,55.4191702 C32.7809874,56.072584 33.3107143,56.6023109 33.9641282,56.6023109 L35.5416492,56.6023109 C36.195063,56.6023109 36.7247899,56.072584 36.7247899,55.4191702 C36.7247899,54.7657563 36.195063,54.2360294 35.5416492,54.2360294 L33.9641282,54.2360294 Z" id="Path"></path>
                        <path d="M41.0631303,54.2360294 L39.4856092,54.2360294 C38.8320378,54.2360294 38.3024685,54.7657563 38.3024685,55.4191702 C38.3024685,56.072584 38.8321954,56.6023109 39.4856092,56.6023109 L41.0631303,56.6023109 C41.7167017,56.6023109 42.246271,56.072584 42.246271,55.4191702 C42.2464286,54.7657563 41.7167017,54.2360294 41.0631303,54.2360294 Z" id="Path"></path>
                        <path d="M37.4998424,18.6918592 C36.3961134,18.6918592 35.4011029,19.2586134 34.8381303,20.2079307 L32.4997374,24.1504727 C32.3979517,24.3222164 32.2277836,24.4457458 32.0328782,24.4895483 L27.5607668,25.4952731 C26.4839811,25.7374475 25.637395,26.5087185 25.2964286,27.5584034 C24.9553046,28.6080882 25.1869223,29.7296218 25.9156513,30.5584034 L28.9425945,34.0006828 C29.0744748,34.1506828 29.1395483,34.3506303 29.1209559,34.5493172 L28.6953782,39.1134454 C28.5929622,40.2124475 29.0648634,41.2558298 29.9577731,41.9045168 C30.8508403,42.5532038 31.9887605,42.6794118 33.0023634,42.2426471 L37.2116597,40.427521 C37.3949055,40.3484244 37.6050945,40.3484244 37.7884979,40.4276786 L41.9977941,42.2426471 C42.3964286,42.4147059 42.8146008,42.4993172 43.2294643,42.4993172 C43.868855,42.4993172 44.5008403,42.2979517 45.0422269,41.9045168 C45.9351366,41.2558298 46.4070378,40.2122899 46.3046218,39.1134454 L45.8790441,34.5493172 C45.8606092,34.3506303 45.9255252,34.1505252 46.0572479,34.0006828 L49.0843487,30.5584034 C49.8130777,29.7296218 50.0445378,28.6080882 49.7035714,27.5584034 C49.3624475,26.5087185 48.5158613,25.7374475 47.4392332,25.4952731 L42.9669643,24.4895483 C42.7722164,24.4457458 42.6023634,24.3222164 42.5002626,24.1504727 L40.1618697,20.2079307 L40.1618697,20.2077731 C39.5987395,19.2584559 38.6035714,18.6918592 37.4998424,18.6918592 L37.4998424,18.6918592 Z M40.465021,25.3574055 C40.8976891,26.0869223 41.6204307,26.6120798 42.4479517,26.7981618 L46.920063,27.8038866 C47.2852941,27.8859769 47.4144958,28.1708508 47.4529412,28.2894958 C47.4915441,28.4081408 47.5545693,28.7144433 47.3073529,28.9956933 L44.2802521,32.4379727 C43.7202731,33.075 43.4442227,33.9245798 43.5228466,34.7688025 L43.9484244,39.3329307 C43.9832458,39.7057248 43.7522584,39.9165441 43.6512605,39.9899685 C43.5504202,40.0632353 43.2781513,40.2178046 42.9346639,40.0695378 L38.7253676,38.2545693 C37.9465336,37.918645 37.0531513,37.918645 36.2744748,38.2544118 L32.0653361,40.0695378 C31.7215336,40.2178046 31.4494223,40.0632353 31.3485819,39.9899685 C31.247584,39.9167017 31.0165966,39.7058824 31.0514181,39.3329307 L31.4769958,34.7688025 C31.5557773,33.9242647 31.2795693,33.0748424 30.7195903,32.4378151 L27.6926471,28.9955357 C27.4452731,28.7142857 27.5082983,28.4079832 27.5469013,28.2893382 C27.5855042,28.1706933 27.7145483,27.8858193 28.079937,27.803729 L32.5520483,26.7980042 C33.3794118,26.6119223 34.1023109,26.0869223 34.534979,25.3574055 L36.8733718,21.4148634 C37.0643382,21.0928046 37.3752101,21.0579832 37.4998424,21.0579832 C37.6246324,21.0579832 37.9355042,21.0928046 38.1266282,21.4148634 L40.465021,25.3574055 Z" id="Shape"></path>
                    </g>
                </g>
            </g>
        </g>
    </g>
</svg>